<svg xmlns="http://www.w3.org/2000/svg" viewBox="0 0 420 595" width="420" height="595">
  <!-- Background -->
  <rect width="420" height="595" fill="#ffffff"/>
  
  <!-- Top Header Strip -->
  <rect x="0" y="0" width="420" height="4" fill="#1f2937"/>

  <!-- Name centered top -->
  <rect x="110" y="24" width="200" height="14" rx="4" fill="#1f2937"/>
  <rect x="145" y="44" width="130" height="6" rx="3" fill="#64748b"/>

  <!-- Contact row -->
  <rect x="60" y="58" width="70" height="5" rx="2.5" fill="#94a3b8"/>
  <rect x="175" y="58" width="70" height="5" rx="2.5" fill="#94a3b8"/>
  <rect x="290" y="58" width="70" height="5" rx="2.5" fill="#94a3b8"/>

  <!-- Thick divider -->
  <rect x="30" y="72" width="360" height="2" rx="1" fill="#1f2937"/>

  <!-- Professional Summary heading -->
  <rect x="30" y="84" width="148" height="7" rx="3.5" fill="#1f2937"/>
  <rect x="30" y="98" width="360" height="4" rx="2" fill="#94a3b8"/>
  <rect x="30" y="107" width="335" height="4" rx="2" fill="#94a3b8"/>
  <rect x="30" y="116" width="350" height="4" rx="2" fill="#94a3b8"/>

  <!-- Divider -->
  <rect x="30" y="130" width="360" height="1.5" fill="#e2e8f0"/>

  <!-- Work Experience heading -->
  <rect x="30" y="140" width="135" height="7" rx="3.5" fill="#1f2937"/>

  <!-- Job 1 -->
  <rect x="30" y="155" width="150" height="6" rx="3" fill="#334155"/>
  <rect x="320" y="155" width="70" height="5" rx="2.5" fill="#94a3b8"/>
  <rect x="30" y="167" width="120" height="5" rx="2.5" fill="#64748b"/>
  <rect x="36" y="179" width="4" height="4" rx="2" fill="#1f2937"/>
  <rect x="44" y="179" width="336" height="4" rx="2" fill="#94a3b8"/>
  <rect x="36" y="188" width="4" height="4" rx="2" fill="#1f2937"/>
  <rect x="44" y="188" width="310" height="4" rx="2" fill="#94a3b8"/>
  <rect x="36" y="197" width="4" height="4" rx="2" fill="#1f2937"/>
  <rect x="44" y="197" width="325" height="4" rx="2" fill="#94a3b8"/>

  <!-- Job 2 -->
  <rect x="30" y="212" width="130" height="6" rx="3" fill="#334155"/>
  <rect x="320" y="212" width="70" height="5" rx="2.5" fill="#94a3b8"/>
  <rect x="30" y="224" width="110" height="5" rx="2.5" fill="#64748b"/>
  <rect x="36" y="236" width="4" height="4" rx="2" fill="#1f2937"/>
  <rect x="44" y="236" width="316" height="4" rx="2" fill="#94a3b8"/>
  <rect x="36" y="245" width="4" height="4" rx="2" fill="#1f2937"/>
  <rect x="44" y="245" width="295" height="4" rx="2" fill="#94a3b8"/>

  <!-- Divider -->
  <rect x="30" y="260" width="360" height="1.5" fill="#e2e8f0"/>

  <!-- Education heading -->
  <rect x="30" y="270" width="80" height="7" rx="3.5" fill="#1f2937"/>

  <!-- Education entries -->
  <rect x="30" y="285" width="160" height="6" rx="3" fill="#334155"/>
  <rect x="320" y="285" width="70" height="5" rx="2.5" fill="#94a3b8"/>
  <rect x="30" y="297" width="130" height="5" rx="2.5" fill="#64748b"/>

  <!-- Divider -->
  <rect x="30" y="312" width="360" height="1.5" fill="#e2e8f0"/>

  <!-- Skills heading -->
  <rect x="30" y="322" width="50" height="7" rx="3.5" fill="#1f2937"/>

  <!-- Skills list -->
  <rect x="30" y="337" width="360" height="4" rx="2" fill="#94a3b8"/>
  <rect x="30" y="347" width="260" height="4" rx="2" fill="#94a3b8"/>

  <!-- Divider -->
  <rect x="30" y="360" width="360" height="1.5" fill="#e2e8f0"/>

  <!-- Certifications heading -->
  <rect x="30" y="370" width="105" height="7" rx="3.5" fill="#1f2937"/>
  <rect x="30" y="385" width="280" height="4" rx="2" fill="#94a3b8"/>
  <rect x="30" y="395" width="240" height="4" rx="2" fill="#94a3b8"/>

  <!-- Bottom border -->
  <rect x="0" y="570" width="420" height="25" fill="#f8fafc"/>
  <text x="210" y="586" font-family="system-ui,sans-serif" font-size="11" fill="#1f2937" font-weight="600" text-anchor="middle">Classic Template</text>
</svg>