<svg width="300" height="400" viewBox="0 0 300 400" xmlns="http://www.w3.org/2000/svg">
  <rect width="300" height="400" fill="#ffffff"/>
  <rect x="50" y="40" width="200" height="12" rx="6" fill="#1f2937"/>
  <rect x="80" y="60" width="140" height="8" rx="4" fill="#6b7280"/>
  <rect x="100" y="75" width="100" height="6" rx="3" fill="#9ca3af"/>
  <line x1="50" y1="100" x2="250" y2="100" stroke="#e5e7eb" stroke-width="2"/>
  <rect x="50" y="120" width="80" height="8" rx="4" fill="#1f2937"/>
  <rect x="50" y="140" width="180" height="4" rx="2" fill="#6b7280"/>
  <rect x="50" y="150" width="170" height="4" rx="2" fill="#6b7280"/>
  <rect x="50" y="160" width="160" height="4" rx="2" fill="#6b7280"/>
  <rect x="50" y="180" width="70" height="8" rx="4" fill="#1f2937"/>
  <rect x="50" y="200" width="190" height="4" rx="2" fill="#6b7280"/>
  <rect x="50" y="210" width="175" height="4" rx="2" fill="#6b7280"/>
  <rect x="50" y="220" width="165" height="4" rx="2" fill="#6b7280"/>
  <rect x="50" y="240" width="85" height="8" rx="4" fill="#1f2937"/>
  <rect x="50" y="260" width="180" height="4" rx="2" fill="#6b7280"/>
  <rect x="50" y="270" width="170" height="4" rx="2" fill="#6b7280"/>
</svg>