<svg xmlns="http://www.w3.org/2000/svg" viewBox="0 0 420 595" width="420" height="595">
  <!-- Background -->
  <rect width="420" height="595" fill="#ffffff"/>
  
  <!-- Bold gradient header -->
  <defs>
    <linearGradient id="hdr" x1="0" y1="0" x2="1" y2="0">
      <stop offset="0%" stop-color="#7c3aed"/>
      <stop offset="100%" stop-color="#4f46e5"/>
    </linearGradient>
    <linearGradient id="sidebarGrad" x1="0" y1="0" x2="0" y2="1">
      <stop offset="0%" stop-color="#6d28d9"/>
      <stop offset="100%" stop-color="#4c1d95"/>
    </linearGradient>
  </defs>
  <rect x="0" y="0" width="420" height="110" fill="url(#hdr)"/>
  
  <!-- Avatar circle in header -->
  <circle cx="70" cy="58" r="36" fill="rgba(255,255,255,0.15)"/>
  <circle cx="70" cy="45" r="15" fill="rgba(255,255,255,0.4)"/>
  <ellipse cx="70" cy="72" rx="23" ry="14" fill="rgba(255,255,255,0.4)"/>
  
  <!-- Name in header -->
  <rect x="120" y="32" width="160" height="14" rx="4" fill="rgba(255,255,255,0.9)"/>
  <rect x="120" y="52" width="110" height="7" rx="3.5" fill="rgba(255,255,255,0.6)"/>
  
  <!-- Contact pills in header -->
  <rect x="120" y="68" width="80" height="12" rx="6" fill="rgba(255,255,255,0.2)"/>
  <rect x="208" y="68" width="90" height="12" rx="6" fill="rgba(255,255,255,0.2)"/>
  <rect x="306" y="68" width="84" height="12" rx="6" fill="rgba(255,255,255,0.2)"/>

  <!-- Left sidebar -->
  <rect x="0" y="110" width="140" height="460" fill="url(#sidebarGrad)"/>

  <!-- Sidebar: Skills section -->
  <rect x="12" y="122" width="45" height="6" rx="3" fill="rgba(255,255,255,0.8)"/>
  <rect x="12" y="132" width="116" height="1" fill="rgba(255,255,255,0.2)"/>

  <!-- Skill pills -->
  <rect x="12" y="140" width="54" height="14" rx="7" fill="rgba(255,255,255,0.15)"/>
  <rect x="70" y="140" width="58" height="14" rx="7" fill="rgba(255,255,255,0.15)"/>
  <rect x="12" y="158" width="46" height="14" rx="7" fill="rgba(255,255,255,0.15)"/>
  <rect x="62" y="158" width="66" height="14" rx="7" fill="rgba(255,255,255,0.15)"/>
  <rect x="12" y="176" width="60" height="14" rx="7" fill="rgba(255,255,255,0.15)"/>
  <rect x="76" y="176" width="52" height="14" rx="7" fill="rgba(255,255,255,0.15)"/>
  <rect x="12" y="194" width="50" height="14" rx="7" fill="rgba(255,255,255,0.15)"/>

  <!-- Sidebar: Languages section -->
  <rect x="12" y="220" width="1" height="1" fill="transparent"/>
  <rect x="12" y="218" width="116" height="1" fill="rgba(255,255,255,0.2)"/>
  <rect x="12" y="226" width="58" height="6" rx="3" fill="rgba(255,255,255,0.8)"/>
  <rect x="12" y="240" width="100" height="5" rx="2.5" fill="rgba(255,255,255,0.5)"/>
  <rect x="12" y="250" width="85" height="5" rx="2.5" fill="rgba(255,255,255,0.5)"/>

  <!-- Sidebar: Education section -->
  <rect x="12" y="272" width="116" height="1" fill="rgba(255,255,255,0.2)"/>
  <rect x="12" y="280" width="65" height="6" rx="3" fill="rgba(255,255,255,0.8)"/>
  <rect x="12" y="294" width="110" height="5" rx="2.5" fill="rgba(255,255,255,0.6)"/>
  <rect x="12" y="304" width="95" height="5" rx="2.5" fill="rgba(255,255,255,0.4)"/>
  <rect x="12" y="314" width="60" height="4" rx="2" fill="rgba(255,255,255,0.35)"/>

  <!-- Main content -->
  <!-- Experience heading -->
  <rect x="155" y="120" width="100" height="8" rx="4" fill="#7c3aed"/>
  <rect x="155" y="132" width="245" height="1.5" fill="#e9d5ff"/>

  <!-- Job 1 -->
  <rect x="155" y="141" width="140" height="7" rx="3.5" fill="#1e1b4b"/>
  <rect x="320" y="141" width="80" height="5" rx="2.5" fill="#9ca3af"/>
  <rect x="155" y="153" width="110" height="5" rx="2.5" fill="#7c3aed"/>
  <rect x="161" y="164" width="5" height="5" rx="2.5" fill="#7c3aed"/>
  <rect x="170" y="165" width="225" height="4" rx="2" fill="#6b7280"/>
  <rect x="161" y="173" width="5" height="5" rx="2.5" fill="#7c3aed"/>
  <rect x="170" y="174" width="215" height="4" rx="2" fill="#6b7280"/>
  <rect x="161" y="182" width="5" height="5" rx="2.5" fill="#7c3aed"/>
  <rect x="170" y="183" width="220" height="4" rx="2" fill="#6b7280"/>

  <!-- Job 2 -->
  <rect x="155" y="200" width="125" height="7" rx="3.5" fill="#1e1b4b"/>
  <rect x="320" y="200" width="80" height="5" rx="2.5" fill="#9ca3af"/>
  <rect x="155" y="212" width="100" height="5" rx="2.5" fill="#7c3aed"/>
  <rect x="161" y="223" width="5" height="5" rx="2.5" fill="#7c3aed"/>
  <rect x="170" y="224" width="210" height="4" rx="2" fill="#6b7280"/>
  <rect x="161" y="232" width="5" height="5" rx="2.5" fill="#7c3aed"/>
  <rect x="170" y="233" width="200" height="4" rx="2" fill="#6b7280"/>

  <!-- Projects heading -->
  <rect x="155" y="255" width="76" height="8" rx="4" fill="#7c3aed"/>
  <rect x="155" y="267" width="245" height="1.5" fill="#e9d5ff"/>

  <!-- Project 1 -->
  <rect x="155" y="277" width="130" height="6" rx="3" fill="#1e1b4b"/>
  <rect x="155" y="289" width="240" height="4" rx="2" fill="#6b7280"/>
  <rect x="155" y="298" width="220" height="4" rx="2" fill="#6b7280"/>
  <!-- Tech tags -->
  <rect x="155" y="308" width="48" height="12" rx="6" fill="#ede9fe"/>
  <rect x="207" y="308" width="56" height="12" rx="6" fill="#ede9fe"/>
  <rect x="267" y="308" width="44" height="12" rx="6" fill="#ede9fe"/>

  <!-- Bottom label -->
  <rect x="0" y="570" width="420" height="25" fill="#f5f3ff"/>
  <text x="210" y="586" font-family="system-ui,sans-serif" font-size="11" fill="#7c3aed" font-weight="600" text-anchor="middle">Creative Template</text>
</svg>