<svg width="300" height="400" viewBox="0 0 300 400" xmlns="http://www.w3.org/2000/svg">
  <defs>
    <linearGradient id="headerGrad" x1="0%" y1="0%" x2="100%" y2="0%">
      <stop offset="0%" style="stop-color:#7c3aed;stop-opacity:1" />
      <stop offset="50%" style="stop-color:#ec4899;stop-opacity:1" />
      <stop offset="100%" style="stop-color:#7c3aed;stop-opacity:1" />
    </linearGradient>
    <linearGradient id="accent1" x1="0%" y1="0%" x2="0%" y2="100%">
      <stop offset="0%" style="stop-color:#7c3aed;stop-opacity:1" />
      <stop offset="100%" style="stop-color:#ec4899;stop-opacity:1" />
    </linearGradient>
    <linearGradient id="accent2" x1="0%" y1="0%" x2="0%" y2="100%">
      <stop offset="0%" style="stop-color:#ec4899;stop-opacity:1" />
      <stop offset="100%" style="stop-color:#7c3aed;stop-opacity:1" />
    </linearGradient>
  </defs>
  <rect width="300" height="400" fill="#ffffff"/>
  <rect x="30" y="30" width="240" height="80" rx="8" fill="url(#headerGrad)"/>
  <rect x="50" y="50" width="140" height="12" rx="6" fill="rgba(255,255,255,0.9)"/>
  <rect x="50" y="70" width="100" height="8" rx="4" fill="rgba(255,255,255,0.7)"/>
  <rect x="20" y="130" width="6" height="40" rx="3" fill="url(#accent1)"/>
  <rect x="40" y="135" width="80" height="8" rx="4" fill="#7c3aed"/>
  <rect x="40" y="150" width="200" height="4" rx="2" fill="#6b7280"/>
  <rect x="40" y="160" width="190" height="4" rx="2" fill="#6b7280"/>
  <rect x="20" y="185" width="6" height="40" rx="3" fill="url(#accent2)"/>
  <rect x="40" y="190" width="70" height="8" rx="4" fill="#ec4899"/>
  <rect x="40" y="205" width="180" height="4" rx="2" fill="#6b7280"/>
  <rect x="40" y="215" width="170" height="4" rx="2" fill="#6b7280"/>
  <rect x="20" y="240" width="6" height="40" rx="3" fill="url(#accent1)"/>
  <rect x="40" y="245" width="90" height="8" rx="4" fill="#7c3aed"/>
  <rect x="40" y="260" width="195" height="4" rx="2" fill="#6b7280"/>
  <rect x="40" y="270" width="185" height="4" rx="2" fill="#6b7280"/>
</svg>