<svg width="300" height="400" viewBox="0 0 300 400" xmlns="http://www.w3.org/2000/svg">
  <rect width="300" height="400" fill="#ffffff"/>
  <rect x="40" y="40" width="160" height="14" rx="7" fill="#374151"/>
  <rect x="40" y="65" width="120" height="8" rx="4" fill="#6b7280"/>
  <line x1="40" y1="90" x2="260" y2="90" stroke="#d1d5db" stroke-width="1"/>
  <rect x="40" y="110" width="60" height="6" rx="3" fill="#374151"/>
  <rect x="40" y="125" width="200" height="3" rx="1.5" fill="#9ca3af"/>
  <rect x="40" y="135" width="190" height="3" rx="1.5" fill="#9ca3af"/>
  <rect x="40" y="145" width="180" height="3" rx="1.5" fill="#9ca3af"/>
  <rect x="40" y="165" width="70" height="6" rx="3" fill="#374151"/>
  <rect x="40" y="180" width="210" height="3" rx="1.5" fill="#9ca3af"/>
  <rect x="40" y="190" width="195" height="3" rx="1.5" fill="#9ca3af"/>
  <rect x="40" y="200" width="185" height="3" rx="1.5" fill="#9ca3af"/>
  <rect x="40" y="220" width="55" height="6" rx="3" fill="#374151"/>
  <rect x="40" y="235" width="180" height="3" rx="1.5" fill="#9ca3af"/>
  <rect x="40" y="245" width="170" height="3" rx="1.5" fill="#9ca3af"/>
</svg>