<svg xmlns="http://www.w3.org/2000/svg" viewBox="0 0 420 595" width="420" height="595">
  <!-- Background -->
  <rect width="420" height="595" fill="#fafafa"/>
  
  <!-- Name -->
  <rect x="30" y="32" width="170" height="16" rx="4" fill="#1a1a2e"/>
  
  <!-- Title / tagline -->
  <rect x="30" y="54" width="110" height="6" rx="3" fill="#6b7280"/>

  <!-- Thin accent line -->
  <rect x="30" y="68" width="40" height="2" rx="1" fill="#6b7280"/>

  <!-- Contact row at top right -->
  <rect x="260" y="34" width="130" height="4" rx="2" fill="#9ca3af"/>
  <rect x="260" y="44" width="110" height="4" rx="2" fill="#9ca3af"/>
  <rect x="260" y="54" width="120" height="4" rx="2" fill="#9ca3af"/>
  <rect x="260" y="64" width="100" height="4" rx="2" fill="#9ca3af"/>

  <!-- Separator line -->
  <rect x="30" y="82" width="360" height="1" fill="#d1d5db"/>

  <!-- EXPERIENCE section heading -->
  <rect x="30" y="94" width="86" height="6" rx="3" fill="#6b7280"/>
  <rect x="30" y="104" width="360" height="1" fill="#e5e7eb"/>

  <!-- Job 1 -->
  <rect x="30" y="114" width="140" height="7" rx="3.5" fill="#111827"/>
  <rect x="330" y="114" width="60" height="5" rx="2.5" fill="#9ca3af"/>
  <rect x="30" y="126" width="110" height="5" rx="2.5" fill="#4b5563"/>
  <rect x="36" y="137" width="4" height="4" rx="2" fill="#6b7280"/>
  <rect x="44" y="137" width="336" height="4" rx="2" fill="#9ca3af"/>
  <rect x="36" y="146" width="4" height="4" rx="2" fill="#6b7280"/>
  <rect x="44" y="146" width="316" height="4" rx="2" fill="#9ca3af"/>
  <rect x="36" y="155" width="4" height="4" rx="2" fill="#6b7280"/>
  <rect x="44" y="155" width="326" height="4" rx="2" fill="#9ca3af"/>

  <!-- Job 2 -->
  <rect x="30" y="170" width="125" height="7" rx="3.5" fill="#111827"/>
  <rect x="330" y="170" width="60" height="5" rx="2.5" fill="#9ca3af"/>
  <rect x="30" y="182" width="100" height="5" rx="2.5" fill="#4b5563"/>
  <rect x="36" y="193" width="4" height="4" rx="2" fill="#6b7280"/>
  <rect x="44" y="193" width="300" height="4" rx="2" fill="#9ca3af"/>
  <rect x="36" y="202" width="4" height="4" rx="2" fill="#6b7280"/>
  <rect x="44" y="202" width="315" height="4" rx="2" fill="#9ca3af"/>

  <!-- Separator line -->
  <rect x="30" y="218" width="360" height="1" fill="#e5e7eb"/>

  <!-- EDUCATION section heading -->
  <rect x="30" y="228" width="74" height="6" rx="3" fill="#6b7280"/>
  <rect x="30" y="238" width="360" height="1" fill="#e5e7eb"/>

  <rect x="30" y="248" width="155" height="7" rx="3.5" fill="#111827"/>
  <rect x="330" y="248" width="60" height="5" rx="2.5" fill="#9ca3af"/>
  <rect x="30" y="260" width="120" height="5" rx="2.5" fill="#4b5563"/>

  <!-- Separator line -->
  <rect x="30" y="275" width="360" height="1" fill="#e5e7eb"/>

  <!-- SKILLS section heading -->
  <rect x="30" y="285" width="46" height="6" rx="3" fill="#6b7280"/>
  <rect x="30" y="295" width="360" height="1" fill="#e5e7eb"/>
  <rect x="30" y="305" width="360" height="4" rx="2" fill="#9ca3af"/>
  <rect x="30" y="315" width="280" height="4" rx="2" fill="#9ca3af"/>

  <!-- Separator line -->
  <rect x="30" y="330" width="360" height="1" fill="#e5e7eb"/>

  <!-- PROJECTS section heading -->
  <rect x="30" y="340" width="62" height="6" rx="3" fill="#6b7280"/>
  <rect x="30" y="350" width="360" height="1" fill="#e5e7eb"/>

  <rect x="30" y="360" width="120" height="7" rx="3.5" fill="#111827"/>
  <rect x="30" y="372" width="360" height="4" rx="2" fill="#9ca3af"/>
  <rect x="30" y="381" width="330" height="4" rx="2" fill="#9ca3af"/>

  <!-- Bottom label -->
  <rect x="0" y="570" width="420" height="25" fill="#f3f4f6"/>
  <text x="210" y="586" font-family="system-ui,sans-serif" font-size="11" fill="#4b5563" font-weight="600" text-anchor="middle">Minimal Template</text>
</svg>