<svg width="300" height="400" viewBox="0 0 300 400" xmlns="http://www.w3.org/2000/svg">
  <rect width="300" height="400" fill="#f8fafc"/>
  <rect x="0" y="0" width="120" height="400" fill="#1e3a5f"/>
  <circle cx="60" cy="60" r="25" fill="rgba(255,255,255,0.2)"/>
  <rect x="20" y="100" width="80" height="8" rx="4" fill="rgba(255,255,255,0.3)"/>
  <rect x="20" y="115" width="60" height="6" rx="3" fill="rgba(255,255,255,0.2)"/>
  <rect x="20" y="140" width="80" height="4" rx="2" fill="rgba(255,255,255,0.25)"/>
  <rect x="20" y="150" width="70" height="4" rx="2" fill="rgba(255,255,255,0.25)"/>
  <rect x="20" y="160" width="75" height="4" rx="2" fill="rgba(255,255,255,0.25)"/>
  <rect x="140" y="30" width="140" height="12" rx="6" fill="#1e3a5f"/>
  <rect x="140" y="50" width="100" height="8" rx="4" fill="#64748b"/>
  <rect x="140" y="80" width="80" height="6" rx="3" fill="#1e3a5f"/>
  <rect x="140" y="95" width="130" height="4" rx="2" fill="#94a3b8"/>
  <rect x="140" y="105" width="120" height="4" rx="2" fill="#94a3b8"/>
  <rect x="140" y="115" width="110" height="4" rx="2" fill="#94a3b8"/>
  <rect x="140" y="140" width="80" height="6" rx="3" fill="#1e3a5f"/>
  <rect x="140" y="155" width="130" height="4" rx="2" fill="#94a3b8"/>
  <rect x="140" y="165" width="115" height="4" rx="2" fill="#94a3b8"/>
</svg>