<svg xmlns="http://www.w3.org/2000/svg" viewBox="0 0 420 595" width="420" height="595">
  <!-- Background -->
  <rect width="420" height="595" fill="#ffffff"/>
  
  <!-- Sidebar -->
  <rect x="0" y="0" width="140" height="595" fill="#1e3a5f"/>
  
  <!-- Avatar circle -->
  <circle cx="70" cy="65" r="34" fill="#2d5a8e"/>
  <circle cx="70" cy="52" r="14" fill="#4a7eb5"/>
  <ellipse cx="70" cy="78" rx="22" ry="14" fill="#4a7eb5"/>
  
  <!-- Name in sidebar -->
  <rect x="12" y="108" width="116" height="8" rx="4" fill="#7aadd4"/>
  <rect x="22" y="122" width="96" height="5" rx="2.5" fill="#4a7eb5"/>
  
  <!-- Divider -->
  <rect x="12" y="136" width="116" height="1" fill="#2d5a8e"/>
  
  <!-- Contact section -->
  <rect x="12" y="146" width="60" height="5" rx="2.5" fill="#7aadd4"/>
  <circle cx="18" cy="162" r="4" fill="#4a7eb5"/>
  <rect x="26" y="159" width="98" height="4" rx="2" fill="#4a7eb5"/>
  <circle cx="18" cy="174" r="4" fill="#4a7eb5"/>
  <rect x="26" y="171" width="80" height="4" rx="2" fill="#4a7eb5"/>
  <circle cx="18" cy="186" r="4" fill="#4a7eb5"/>
  <rect x="26" y="183" width="90" height="4" rx="2" fill="#4a7eb5"/>
  
  <!-- Divider -->
  <rect x="12" y="198" width="116" height="1" fill="#2d5a8e"/>
  
  <!-- Skills section -->
  <rect x="12" y="207" width="45" height="5" rx="2.5" fill="#7aadd4"/>
  <rect x="12" y="220" width="50" height="14" rx="7" fill="#2d5a8e"/>
  <rect x="66" y="220" width="58" height="14" rx="7" fill="#2d5a8e"/>
  <rect x="12" y="238" width="42" height="14" rx="7" fill="#2d5a8e"/>
  <rect x="58" y="238" width="62" height="14" rx="7" fill="#2d5a8e"/>
  <rect x="12" y="256" width="55" height="14" rx="7" fill="#2d5a8e"/>
  <rect x="71" y="256" width="48" height="14" rx="7" fill="#2d5a8e"/>
  
  <!-- Divider -->
  <rect x="12" y="278" width="116" height="1" fill="#2d5a8e"/>
  
  <!-- Languages section -->
  <rect x="12" y="287" width="56" height="5" rx="2.5" fill="#7aadd4"/>
  <rect x="12" y="300" width="90" height="4" rx="2" fill="#4a7eb5"/>
  <rect x="12" y="310" width="78" height="4" rx="2" fill="#4a7eb5"/>
  
  <!-- Main content area -->
  <!-- Name heading -->
  <rect x="158" y="28" width="180" height="14" rx="4" fill="#1e3a5f"/>
  <rect x="158" y="48" width="120" height="6" rx="3" fill="#7aadd4"/>
  
  <!-- Divider under name -->
  <rect x="158" y="62" width="242" height="2" rx="1" fill="#1e3a5f"/>
  
  <!-- Summary section -->
  <rect x="158" y="74" width="90" height="7" rx="3.5" fill="#1e3a5f"/>
  <rect x="158" y="74" width="240" height="2" rx="1" fill="#eef2f7"/>
  <rect x="158" y="88" width="240" height="4" rx="2" fill="#cbd5e1"/>
  <rect x="158" y="96" width="220" height="4" rx="2" fill="#cbd5e1"/>
  <rect x="158" y="104" width="235" height="4" rx="2" fill="#cbd5e1"/>
  
  <!-- Experience section -->
  <rect x="158" y="120" width="100" height="7" rx="3.5" fill="#1e3a5f"/>
  <rect x="158" y="130" width="240" height="1.5" fill="#e2e8f0"/>
  
  <!-- Job 1 -->
  <rect x="158" y="138" width="130" height="6" rx="3" fill="#334155"/>
  <rect x="318" y="138" width="80" height="5" rx="2.5" fill="#94a3b8"/>
  <rect x="158" y="150" width="100" height="5" rx="2.5" fill="#64748b"/>
  <rect x="162" y="162" width="4" height="4" rx="2" fill="#7aadd4"/>
  <rect x="170" y="162" width="220" height="4" rx="2" fill="#94a3b8"/>
  <rect x="162" y="170" width="4" height="4" rx="2" fill="#7aadd4"/>
  <rect x="170" y="170" width="200" height="4" rx="2" fill="#94a3b8"/>
  <rect x="162" y="178" width="4" height="4" rx="2" fill="#7aadd4"/>
  <rect x="170" y="178" width="215" height="4" rx="2" fill="#94a3b8"/>

  <!-- Job 2 -->
  <rect x="158" y="194" width="120" height="6" rx="3" fill="#334155"/>
  <rect x="318" y="194" width="80" height="5" rx="2.5" fill="#94a3b8"/>
  <rect x="158" y="206" width="105" height="5" rx="2.5" fill="#64748b"/>
  <rect x="162" y="218" width="4" height="4" rx="2" fill="#7aadd4"/>
  <rect x="170" y="218" width="210" height="4" rx="2" fill="#94a3b8"/>
  <rect x="162" y="226" width="4" height="4" rx="2" fill="#7aadd4"/>
  <rect x="170" y="226" width="195" height="4" rx="2" fill="#94a3b8"/>
  
  <!-- Education section -->
  <rect x="158" y="245" width="85" height="7" rx="3.5" fill="#1e3a5f"/>
  <rect x="158" y="255" width="240" height="1.5" fill="#e2e8f0"/>
  <rect x="158" y="263" width="140" height="6" rx="3" fill="#334155"/>
  <rect x="318" y="263" width="80" height="5" rx="2.5" fill="#94a3b8"/>
  <rect x="158" y="275" width="110" height="5" rx="2.5" fill="#64748b"/>
  
  <!-- Projects section -->
  <rect x="158" y="294" width="75" height="7" rx="3.5" fill="#1e3a5f"/>
  <rect x="158" y="304" width="240" height="1.5" fill="#e2e8f0"/>
  <rect x="158" y="312" width="120" height="6" rx="3" fill="#334155"/>
  <rect x="158" y="324" width="240" height="4" rx="2" fill="#94a3b8"/>
  <rect x="158" y="332" width="220" height="4" rx="2" fill="#94a3b8"/>
  <!-- Tech pills -->
  <rect x="158" y="342" width="44" height="12" rx="6" fill="#dbeafe"/>
  <rect x="206" y="342" width="52" height="12" rx="6" fill="#dbeafe"/>
  <rect x="262" y="342" width="48" height="12" rx="6" fill="#dbeafe"/>
  
  <!-- Template label -->
  <rect x="0" y="570" width="420" height="25" fill="#f8fafc"/>
  <text x="210" y="586" font-family="system-ui,sans-serif" font-size="11" fill="#1e3a5f" font-weight="600" text-anchor="middle">Modern Template</text>
</svg>